<?xml version="1.0" encoding="UTF-8" standalone="no"?>
<svg
   xmlns:dc="http://purl.org/dc/elements/1.1/"
   xmlns:cc="http://creativecommons.org/ns#"
   xmlns:rdf="http://www.w3.org/1999/02/22-rdf-syntax-ns#"
   xmlns:svg="http://www.w3.org/2000/svg"
   xmlns="http://www.w3.org/2000/svg"
   viewBox="0 0 816 1056"
   height="1056"
   width="816"
   xml:space="preserve"
   id="svg2"
   version="1.1"><metadata
     id="metadata8"><rdf:RDF><cc:Work
         rdf:about=""><dc:format>image/svg+xml</dc:format><dc:type
           rdf:resource="http://purl.org/dc/dcmitype/StillImage" /></cc:Work></rdf:RDF></metadata><defs
     id="defs6"><clipPath
       id="clipPath18"
       clipPathUnits="userSpaceOnUse"><path
         style="clip-rule:evenodd"
         id="path16"
         d="M 9.12e-6,0 H 612.00001 V 792 H 9.12e-6 Z" /></clipPath><clipPath
       id="clipPath30"
       clipPathUnits="userSpaceOnUse"><path
         style="clip-rule:evenodd"
         id="path28"
         d="M 9.12e-6,0 H 612.00001 V 792 H 9.12e-6 Z" /></clipPath><clipPath
       id="clipPath38"
       clipPathUnits="userSpaceOnUse"><path
         style="clip-rule:evenodd"
         id="path36"
         d="M 9.12e-6,0 H 612.00001 V 792 H 9.12e-6 Z" /></clipPath><clipPath
       id="clipPath46"
       clipPathUnits="userSpaceOnUse"><path
         style="clip-rule:evenodd"
         id="path44"
         d="M 9.12e-6,0 H 612.00001 V 792 H 9.12e-6 Z" /></clipPath><clipPath
       id="clipPath58"
       clipPathUnits="userSpaceOnUse"><path
         style="clip-rule:evenodd"
         id="path56"
         d="M 9.12e-6,0 H 612.00001 V 792 H 9.12e-6 Z" /></clipPath><clipPath
       id="clipPath66"
       clipPathUnits="userSpaceOnUse"><path
         style="clip-rule:evenodd"
         id="path64"
         d="M 9.12e-6,0 H 612.00001 V 792 H 9.12e-6 Z" /></clipPath><clipPath
       id="clipPath74"
       clipPathUnits="userSpaceOnUse"><path
         style="clip-rule:evenodd"
         id="path72"
         d="M 9.12e-6,0 H 612.00001 V 792 H 9.12e-6 Z" /></clipPath><clipPath
       id="clipPath86"
       clipPathUnits="userSpaceOnUse"><path
         style="clip-rule:evenodd"
         id="path84"
         d="M 9.12e-6,0 H 612.00001 V 792 H 9.12e-6 Z" /></clipPath><clipPath
       id="clipPath98"
       clipPathUnits="userSpaceOnUse"><path
         style="clip-rule:evenodd"
         id="path96"
         d="M 9.12e-6,0 H 612.00001 V 792 H 9.12e-6 Z" /></clipPath><clipPath
       id="clipPath110"
       clipPathUnits="userSpaceOnUse"><path
         style="clip-rule:evenodd"
         id="path108"
         d="M 9.12e-6,0 H 612.00001 V 792 H 9.12e-6 Z" /></clipPath><clipPath
       id="clipPath118"
       clipPathUnits="userSpaceOnUse"><path
         style="clip-rule:evenodd"
         id="path116"
         d="M 9.12e-6,0 H 612.00001 V 792 H 9.12e-6 Z" /></clipPath><clipPath
       id="clipPath126"
       clipPathUnits="userSpaceOnUse"><path
         style="clip-rule:evenodd"
         id="path124"
         d="M 9.12e-6,0 H 612.00001 V 792 H 9.12e-6 Z" /></clipPath><clipPath
       id="clipPath138"
       clipPathUnits="userSpaceOnUse"><path
         style="clip-rule:evenodd"
         id="path136"
         d="M 9.12e-6,0 H 612.00001 V 792 H 9.12e-6 Z" /></clipPath><clipPath
       id="clipPath146"
       clipPathUnits="userSpaceOnUse"><path
         style="clip-rule:evenodd"
         id="path144"
         d="M 9.12e-6,0 H 612.00001 V 792 H 9.12e-6 Z" /></clipPath><clipPath
       id="clipPath154"
       clipPathUnits="userSpaceOnUse"><path
         style="clip-rule:evenodd"
         id="path152"
         d="M 9.12e-6,0 H 612.00001 V 792 H 9.12e-6 Z" /></clipPath><clipPath
       id="clipPath166"
       clipPathUnits="userSpaceOnUse"><path
         style="clip-rule:evenodd"
         id="path164"
         d="M 9.12e-6,0 H 612.00001 V 792 H 9.12e-6 Z" /></clipPath><clipPath
       id="clipPath174"
       clipPathUnits="userSpaceOnUse"><path
         style="clip-rule:evenodd"
         id="path172"
         d="M 9.12e-6,0 H 612.00001 V 792 H 9.12e-6 Z" /></clipPath><clipPath
       id="clipPath186"
       clipPathUnits="userSpaceOnUse"><path
         style="clip-rule:evenodd"
         id="path184"
         d="M 9.12e-6,0 H 612.00001 V 792 H 9.12e-6 Z" /></clipPath><clipPath
       id="clipPath194"
       clipPathUnits="userSpaceOnUse"><path
         style="clip-rule:evenodd"
         id="path192"
         d="M 9.12e-6,0 H 612.00001 V 792 H 9.12e-6 Z" /></clipPath><clipPath
       id="clipPath202"
       clipPathUnits="userSpaceOnUse"><path
         style="clip-rule:evenodd"
         id="path200"
         d="M 9.12e-6,0 H 612.00001 V 792 H 9.12e-6 Z" /></clipPath><clipPath
       id="clipPath214"
       clipPathUnits="userSpaceOnUse"><path
         style="clip-rule:evenodd"
         id="path212"
         d="M 9.12e-6,0 H 612.00001 V 792 H 9.12e-6 Z" /></clipPath><clipPath
       id="clipPath226"
       clipPathUnits="userSpaceOnUse"><path
         style="clip-rule:evenodd"
         id="path224"
         d="M 9.12e-6,0 H 612.00001 V 792 H 9.12e-6 Z" /></clipPath><clipPath
       id="clipPath234"
       clipPathUnits="userSpaceOnUse"><path
         style="clip-rule:evenodd"
         id="path232"
         d="M 9.12e-6,0 H 612.00001 V 792 H 9.12e-6 Z" /></clipPath><clipPath
       id="clipPath242"
       clipPathUnits="userSpaceOnUse"><path
         style="clip-rule:evenodd"
         id="path240"
         d="M 9.12e-6,0 H 612.00001 V 792 H 9.12e-6 Z" /></clipPath><clipPath
       id="clipPath254"
       clipPathUnits="userSpaceOnUse"><path
         style="clip-rule:evenodd"
         id="path252"
         d="M 9.12e-6,0 H 612.00001 V 792 H 9.12e-6 Z" /></clipPath><clipPath
       id="clipPath262"
       clipPathUnits="userSpaceOnUse"><path
         style="clip-rule:evenodd"
         id="path260"
         d="M 9.12e-6,0 H 612.00001 V 792 H 9.12e-6 Z" /></clipPath><clipPath
       id="clipPath270"
       clipPathUnits="userSpaceOnUse"><path
         style="clip-rule:evenodd"
         id="path268"
         d="M 9.12e-6,0 H 612.00001 V 792 H 9.12e-6 Z" /></clipPath><clipPath
       id="clipPath282"
       clipPathUnits="userSpaceOnUse"><path
         style="clip-rule:evenodd"
         id="path280"
         d="M 9.12e-6,0 H 612.00001 V 792 H 9.12e-6 Z" /></clipPath><clipPath
       id="clipPath290"
       clipPathUnits="userSpaceOnUse"><path
         style="clip-rule:evenodd"
         id="path288"
         d="M 9.12e-6,0 H 612.00001 V 792 H 9.12e-6 Z" /></clipPath><clipPath
       id="clipPath302"
       clipPathUnits="userSpaceOnUse"><path
         style="clip-rule:evenodd"
         id="path300"
         d="M 9.12e-6,0 H 612.00001 V 792 H 9.12e-6 Z" /></clipPath><clipPath
       id="clipPath310"
       clipPathUnits="userSpaceOnUse"><path
         style="clip-rule:evenodd"
         id="path308"
         d="M 9.12e-6,0 H 612.00001 V 792 H 9.12e-6 Z" /></clipPath><clipPath
       id="clipPath318"
       clipPathUnits="userSpaceOnUse"><path
         style="clip-rule:evenodd"
         id="path316"
         d="M 9.12e-6,0 H 612.00001 V 792 H 9.12e-6 Z" /></clipPath><clipPath
       id="clipPath330"
       clipPathUnits="userSpaceOnUse"><path
         style="clip-rule:evenodd"
         id="path328"
         d="M 9.12e-6,0 H 612.00001 V 792 H 9.12e-6 Z" /></clipPath><clipPath
       id="clipPath338"
       clipPathUnits="userSpaceOnUse"><path
         style="clip-rule:evenodd"
         id="path336"
         d="M 9.12e-6,0 H 612.00001 V 792 H 9.12e-6 Z" /></clipPath></defs><g
     transform="matrix(1.3333333,0,0,-1.3333333,0,1056)"
     id="g10"><g
       id="g12"><g
         clip-path="url(#clipPath18)"
         id="g14"><text
           id="text22"
           style="font-variant:normal;font-weight:bold;font-size:63.95999908px;font-family:Arial;-inkscape-font-specification:Arial-BoldMT;writing-mode:lr-tb;fill:#ffffff;fill-opacity:1;fill-rule:nonzero;stroke:none"
           transform="matrix(1,0,0,-1,108.5,659.86)"><tspan
             id="tspan20"
             y="0"
             x="0 42.66132 81.740883 99.521759 135.08353 170.64528 191.94395 231.15144 266.7132 284.49408 320.05585 359.13541 394.69717">Polyethylene </tspan></text>
</g></g><g
       id="g24"><g
         clip-path="url(#clipPath30)"
         id="g26" /></g><g
       id="g32"><g
         clip-path="url(#clipPath38)"
         id="g34" /></g><g
       id="g40"><g
         clip-path="url(#clipPath46)"
         id="g42"><text
           id="text50"
           style="font-variant:normal;font-weight:bold;font-size:63.95999908px;font-family:Arial;-inkscape-font-specification:Arial-BoldMT;writing-mode:lr-tb;fill:#ffffff;fill-opacity:1;fill-rule:nonzero;stroke:none"
           transform="matrix(1,0,0,-1,96.144,578.86)"><tspan
             id="tspan48"
             y="0"
             x="0 39.079559 74.641319 99.521759 135.08353 174.16309 213.24265 234.54132 273.62088 309.18265 326.96353 362.52527 383.82397">Terephthalate</tspan></text>
</g></g><g
       id="g52"><g
         clip-path="url(#clipPath58)"
         id="g54" /></g><g
       id="g60"><g
         clip-path="url(#clipPath66)"
         id="g62" /></g><g
       id="g68"><g
         clip-path="url(#clipPath74)"
         id="g70"><text
           id="text78"
           style="font-variant:normal;font-weight:normal;font-size:48px;font-family:ArialMT;-inkscape-font-specification:ArialMT;writing-mode:lr-tb;fill:#ffffff;fill-opacity:1;fill-rule:nonzero;stroke:none"
           transform="matrix(1,0,0,-1,112.58,513.07)"><tspan
             id="tspan76"
             y="0"
             x="0 39.984001 66.671997 77.328003 104.016 114.672 138.672 152.01601 184.032 194.688 221.37601 248.064 258.72">Mainly Single</tspan></text>
</g></g><g
       id="g80"><g
         clip-path="url(#clipPath86)"
         id="g82"><text
           id="text90"
           style="font-variant:normal;font-weight:normal;font-size:48px;font-family:ArialMT;-inkscape-font-specification:ArialMT;writing-mode:lr-tb;fill:#ffffff;fill-opacity:1;fill-rule:nonzero;stroke:none"
           transform="matrix(1,0,0,-1,397.99,513.07)"><tspan
             id="tspan88"
             y="0"
             x="0">-</tspan></text>
</g></g><g
       id="g92"><g
         clip-path="url(#clipPath98)"
         id="g94"><text
           id="text102"
           style="font-variant:normal;font-weight:normal;font-size:48px;font-family:ArialMT;-inkscape-font-specification:ArialMT;writing-mode:lr-tb;fill:#ffffff;fill-opacity:1;fill-rule:nonzero;stroke:none"
           transform="matrix(1,0,0,-1,413.95,513.07)"><tspan
             id="tspan100"
             y="0"
             x="0 34.655998 58.655998">Use</tspan></text>
</g></g><g
       id="g104"><g
         clip-path="url(#clipPath110)"
         id="g106" /></g><g
       id="g112"><g
         clip-path="url(#clipPath118)"
         id="g114" /></g><g
       id="g120"><g
         clip-path="url(#clipPath126)"
         id="g122"><text
           id="text130"
           style="font-variant:normal;font-weight:normal;font-size:48px;font-family:ArialMT;-inkscape-font-specification:ArialMT;writing-mode:lr-tb;fill:#ffffff;fill-opacity:1;fill-rule:nonzero;stroke:none"
           transform="matrix(1,0,0,-1,271.37,452.35)"><tspan
             id="tspan128"
             y="0"
             x="0 32.015999 56.015999">Ex:</tspan></text>
</g></g><g
       id="g132"><g
         clip-path="url(#clipPath138)"
         id="g134" /></g><g
       id="g140"><g
         clip-path="url(#clipPath146)"
         id="g142" /></g><g
       id="g148"><g
         clip-path="url(#clipPath154)"
         id="g150"><text
           id="text158"
           style="font-variant:normal;font-weight:normal;font-size:48px;font-family:ArialMT;-inkscape-font-specification:ArialMT;writing-mode:lr-tb;fill:#ffffff;fill-opacity:1;fill-rule:nonzero;stroke:none"
           transform="matrix(1,0,0,-1,155.3,391.63)"><tspan
             id="tspan156"
             y="0"
             x="0">-</tspan></text>
</g></g><g
       id="g160"><g
         clip-path="url(#clipPath166)"
         id="g162" /></g><g
       id="g168"><g
         clip-path="url(#clipPath174)"
         id="g170"><text
           id="text178"
           style="font-variant:normal;font-weight:normal;font-size:48px;font-family:ArialMT;-inkscape-font-specification:ArialMT;writing-mode:lr-tb;fill:#ffffff;fill-opacity:1;fill-rule:nonzero;stroke:none"
           transform="matrix(1,0,0,-1,184.58,391.63)"><tspan
             id="tspan176"
             y="0"
             x="0 34.655998 50.639999 61.296001 87.984001 111.984 125.328 157.34399 184.032 197.37601 210.72 221.472 248.16">Drink Bottles</tspan></text>
</g></g><g
       id="g180"><g
         clip-path="url(#clipPath186)"
         id="g182" /></g><g
       id="g188"><g
         clip-path="url(#clipPath194)"
         id="g190" /></g><g
       id="g196"><g
         clip-path="url(#clipPath202)"
         id="g198"><text
           id="text206"
           style="font-variant:normal;font-weight:normal;font-size:48px;font-family:ArialMT;-inkscape-font-specification:ArialMT;writing-mode:lr-tb;fill:#ffffff;fill-opacity:1;fill-rule:nonzero;stroke:none"
           transform="matrix(1,0,0,-1,244.61,330.89)"><tspan
             id="tspan204"
             y="0"
             x="0">-</tspan></text>
</g></g><g
       id="g208"><g
         clip-path="url(#clipPath214)"
         id="g210"><text
           id="text218"
           style="font-variant:normal;font-weight:normal;font-size:48px;font-family:ArialMT;-inkscape-font-specification:ArialMT;writing-mode:lr-tb;fill:#ffffff;fill-opacity:1;fill-rule:nonzero;stroke:none"
           transform="matrix(1,0,0,-1,260.57,330.89)"><tspan
             id="tspan216"
             y="0"
             x="0 29.327999 56.015999 82.704002">Tubs</tspan></text>
</g></g><g
       id="g220"><g
         clip-path="url(#clipPath226)"
         id="g222" /></g><g
       id="g228"><g
         clip-path="url(#clipPath234)"
         id="g230" /></g><g
       id="g236"><g
         clip-path="url(#clipPath242)"
         id="g238"><text
           id="text246"
           style="font-variant:normal;font-weight:normal;font-size:48px;font-family:ArialMT;-inkscape-font-specification:ArialMT;writing-mode:lr-tb;fill:#ffffff;fill-opacity:1;fill-rule:nonzero;stroke:none"
           transform="matrix(1,0,0,-1,101.9,270.17)"><tspan
             id="tspan244"
             y="0"
             x="0 34.655998 61.344002 88.031998 114.72 125.376 136.032 160.032 173.37601 208.032 234.72 258.72 282.72 306.72 317.37601 344.064 370.75201 381.40799">Readily Recyclable</tspan></text>
</g></g><g
       id="g248"><g
         clip-path="url(#clipPath254)"
         id="g250" /></g><g
       id="g256"><g
         clip-path="url(#clipPath262)"
         id="g258" /></g><g
       id="g264"><g
         clip-path="url(#clipPath270)"
         id="g266"><text
           id="text274"
           style="font-variant:normal;font-weight:normal;font-size:48px;font-family:ArialMT;-inkscape-font-specification:ArialMT;writing-mode:lr-tb;fill:#ffffff;fill-opacity:1;fill-rule:nonzero;stroke:none"
           transform="matrix(1,0,0,-1,181.94,209.42)"><tspan
             id="tspan272"
             y="0"
             x="0 10.656 37.344002 50.688 77.375999 90.720001 120.048 130.70399 157.392 184.08 208.08 234.76801 248.112">into Fleece, </tspan></text>
</g></g><g
       id="g276"><g
         clip-path="url(#clipPath282)"
         id="g278" /></g><g
       id="g284"><g
         clip-path="url(#clipPath290)"
         id="g286"><text
           id="text294"
           style="font-variant:normal;font-weight:normal;font-size:48px;font-family:ArialMT;-inkscape-font-specification:ArialMT;writing-mode:lr-tb;fill:#ffffff;fill-opacity:1;fill-rule:nonzero;stroke:none"
           transform="matrix(1,0,0,-1,199.25,148.7)"><tspan
             id="tspan292"
             y="0"
             x="0 32.015999 58.703999 69.360001 93.360001 120.048 144.048 157.392 184.08 200.064">Polyester,</tspan></text>
</g></g><g
       id="g296"><g
         clip-path="url(#clipPath302)"
         id="g298" /></g><g
       id="g304"><g
         clip-path="url(#clipPath310)"
         id="g306" /></g><g
       id="g312"><g
         clip-path="url(#clipPath318)"
         id="g314"><text
           id="text322"
           style="font-variant:normal;font-weight:normal;font-size:48px;font-family:ArialMT;-inkscape-font-specification:ArialMT;writing-mode:lr-tb;fill:#ffffff;fill-opacity:1;fill-rule:nonzero;stroke:none"
           transform="matrix(1,0,0,-1,274.01,87.984)"><tspan
             id="tspan320"
             y="0"
             x="0 26.688 40.032001">etc</tspan></text>
</g></g><g
       id="g324"><g
         clip-path="url(#clipPath330)"
         id="g326" /></g><g
       id="g332"><g
         clip-path="url(#clipPath338)"
         id="g334" /></g></g></svg>