<?xml version="1.0" encoding="UTF-8" standalone="no"?>
<svg
   xmlns:dc="http://purl.org/dc/elements/1.1/"
   xmlns:cc="http://creativecommons.org/ns#"
   xmlns:rdf="http://www.w3.org/1999/02/22-rdf-syntax-ns#"
   xmlns:svg="http://www.w3.org/2000/svg"
   xmlns="http://www.w3.org/2000/svg"
   viewBox="0 0 816 1056"
   height="1056"
   width="816"
   xml:space="preserve"
   id="svg2"
   version="1.1"><metadata
     id="metadata8"><rdf:RDF><cc:Work
         rdf:about=""><dc:format>image/svg+xml</dc:format><dc:type
           rdf:resource="http://purl.org/dc/dcmitype/StillImage" /></cc:Work></rdf:RDF></metadata><defs
     id="defs6"><clipPath
       id="clipPath18"
       clipPathUnits="userSpaceOnUse"><path
         style="clip-rule:evenodd"
         id="path16"
         d="M 9.12e-6,0 H 612.00001 V 792 H 9.12e-6 Z" /></clipPath><clipPath
       id="clipPath30"
       clipPathUnits="userSpaceOnUse"><path
         style="clip-rule:evenodd"
         id="path28"
         d="M 9.12e-6,0 H 612.00001 V 792 H 9.12e-6 Z" /></clipPath><clipPath
       id="clipPath38"
       clipPathUnits="userSpaceOnUse"><path
         style="clip-rule:evenodd"
         id="path36"
         d="M 9.12e-6,0 H 612.00001 V 792 H 9.12e-6 Z" /></clipPath><clipPath
       id="clipPath46"
       clipPathUnits="userSpaceOnUse"><path
         style="clip-rule:evenodd"
         id="path44"
         d="M 9.12e-6,0 H 612.00001 V 792 H 9.12e-6 Z" /></clipPath><clipPath
       id="clipPath58"
       clipPathUnits="userSpaceOnUse"><path
         style="clip-rule:evenodd"
         id="path56"
         d="M 9.12e-6,0 H 612.00001 V 792 H 9.12e-6 Z" /></clipPath><clipPath
       id="clipPath66"
       clipPathUnits="userSpaceOnUse"><path
         style="clip-rule:evenodd"
         id="path64"
         d="M 9.12e-6,0 H 612.00001 V 792 H 9.12e-6 Z" /></clipPath><clipPath
       id="clipPath74"
       clipPathUnits="userSpaceOnUse"><path
         style="clip-rule:evenodd"
         id="path72"
         d="M 9.12e-6,0 H 612.00001 V 792 H 9.12e-6 Z" /></clipPath><clipPath
       id="clipPath86"
       clipPathUnits="userSpaceOnUse"><path
         style="clip-rule:evenodd"
         id="path84"
         d="M 9.12e-6,0 H 612.00001 V 792 H 9.12e-6 Z" /></clipPath><clipPath
       id="clipPath94"
       clipPathUnits="userSpaceOnUse"><path
         style="clip-rule:evenodd"
         id="path92"
         d="M 9.12e-6,0 H 612.00001 V 792 H 9.12e-6 Z" /></clipPath><clipPath
       id="clipPath102"
       clipPathUnits="userSpaceOnUse"><path
         style="clip-rule:evenodd"
         id="path100"
         d="M 9.12e-6,0 H 612.00001 V 792 H 9.12e-6 Z" /></clipPath><clipPath
       id="clipPath114"
       clipPathUnits="userSpaceOnUse"><path
         style="clip-rule:evenodd"
         id="path112"
         d="M 9.12e-6,0 H 612.00001 V 792 H 9.12e-6 Z" /></clipPath><clipPath
       id="clipPath122"
       clipPathUnits="userSpaceOnUse"><path
         style="clip-rule:evenodd"
         id="path120"
         d="M 9.12e-6,0 H 612.00001 V 792 H 9.12e-6 Z" /></clipPath><clipPath
       id="clipPath130"
       clipPathUnits="userSpaceOnUse"><path
         style="clip-rule:evenodd"
         id="path128"
         d="M 9.12e-6,0 H 612.00001 V 792 H 9.12e-6 Z" /></clipPath><clipPath
       id="clipPath142"
       clipPathUnits="userSpaceOnUse"><path
         style="clip-rule:evenodd"
         id="path140"
         d="M 9.12e-6,0 H 612.00001 V 792 H 9.12e-6 Z" /></clipPath><clipPath
       id="clipPath154"
       clipPathUnits="userSpaceOnUse"><path
         style="clip-rule:evenodd"
         id="path152"
         d="M 9.12e-6,0 H 612.00001 V 792 H 9.12e-6 Z" /></clipPath><clipPath
       id="clipPath162"
       clipPathUnits="userSpaceOnUse"><path
         style="clip-rule:evenodd"
         id="path160"
         d="M 9.12e-6,0 H 612.00001 V 792 H 9.12e-6 Z" /></clipPath><clipPath
       id="clipPath174"
       clipPathUnits="userSpaceOnUse"><path
         style="clip-rule:evenodd"
         id="path172"
         d="M 9.12e-6,0 H 612.00001 V 792 H 9.12e-6 Z" /></clipPath><clipPath
       id="clipPath182"
       clipPathUnits="userSpaceOnUse"><path
         style="clip-rule:evenodd"
         id="path180"
         d="M 9.12e-6,0 H 612.00001 V 792 H 9.12e-6 Z" /></clipPath><clipPath
       id="clipPath190"
       clipPathUnits="userSpaceOnUse"><path
         style="clip-rule:evenodd"
         id="path188"
         d="M 9.12e-6,0 H 612.00001 V 792 H 9.12e-6 Z" /></clipPath><clipPath
       id="clipPath202"
       clipPathUnits="userSpaceOnUse"><path
         style="clip-rule:evenodd"
         id="path200"
         d="M 9.12e-6,0 H 612.00001 V 792 H 9.12e-6 Z" /></clipPath><clipPath
       id="clipPath214"
       clipPathUnits="userSpaceOnUse"><path
         style="clip-rule:evenodd"
         id="path212"
         d="M 9.12e-6,0 H 612.00001 V 792 H 9.12e-6 Z" /></clipPath><clipPath
       id="clipPath222"
       clipPathUnits="userSpaceOnUse"><path
         style="clip-rule:evenodd"
         id="path220"
         d="M 9.12e-6,0 H 612.00001 V 792 H 9.12e-6 Z" /></clipPath><clipPath
       id="clipPath230"
       clipPathUnits="userSpaceOnUse"><path
         style="clip-rule:evenodd"
         id="path228"
         d="M 9.12e-6,0 H 612.00001 V 792 H 9.12e-6 Z" /></clipPath><clipPath
       id="clipPath242"
       clipPathUnits="userSpaceOnUse"><path
         style="clip-rule:evenodd"
         id="path240"
         d="M 9.12e-6,0 H 612.00001 V 792 H 9.12e-6 Z" /></clipPath><clipPath
       id="clipPath250"
       clipPathUnits="userSpaceOnUse"><path
         style="clip-rule:evenodd"
         id="path248"
         d="M 9.12e-6,0 H 612.00001 V 792 H 9.12e-6 Z" /></clipPath><clipPath
       id="clipPath262"
       clipPathUnits="userSpaceOnUse"><path
         style="clip-rule:evenodd"
         id="path260"
         d="M 9.12e-6,0 H 612.00001 V 792 H 9.12e-6 Z" /></clipPath><clipPath
       id="clipPath270"
       clipPathUnits="userSpaceOnUse"><path
         style="clip-rule:evenodd"
         id="path268"
         d="M 9.12e-6,0 H 612.00001 V 792 H 9.12e-6 Z" /></clipPath><clipPath
       id="clipPath278"
       clipPathUnits="userSpaceOnUse"><path
         style="clip-rule:evenodd"
         id="path276"
         d="M 9.12e-6,0 H 612.00001 V 792 H 9.12e-6 Z" /></clipPath><clipPath
       id="clipPath290"
       clipPathUnits="userSpaceOnUse"><path
         style="clip-rule:evenodd"
         id="path288"
         d="M 9.12e-6,0 H 612.00001 V 792 H 9.12e-6 Z" /></clipPath><clipPath
       id="clipPath298"
       clipPathUnits="userSpaceOnUse"><path
         style="clip-rule:evenodd"
         id="path296"
         d="M 9.12e-6,0 H 612.00001 V 792 H 9.12e-6 Z" /></clipPath><clipPath
       id="clipPath310"
       clipPathUnits="userSpaceOnUse"><path
         style="clip-rule:evenodd"
         id="path308"
         d="M 9.12e-6,0 H 612.00001 V 792 H 9.12e-6 Z" /></clipPath><clipPath
       id="clipPath318"
       clipPathUnits="userSpaceOnUse"><path
         style="clip-rule:evenodd"
         id="path316"
         d="M 9.12e-6,0 H 612.00001 V 792 H 9.12e-6 Z" /></clipPath></defs><g
     transform="matrix(1.3333333,0,0,-1.3333333,0,1056)"
     id="g10"><g
       id="g12"><g
         clip-path="url(#clipPath18)"
         id="g14"><text
           id="text22"
           style="font-variant:normal;font-weight:bold;font-size:63.95999908px;font-family:Arial;-inkscape-font-specification:Arial-BoldMT;writing-mode:lr-tb;fill:#ffffff;fill-opacity:1;fill-rule:nonzero;stroke:none"
           transform="matrix(1,0,0,-1,117.5,659.98)"><tspan
             id="tspan20"
             y="0"
             x="0 39.079559 78.159119 127.92 145.70088 191.88 227.44176 266.52133 302.211 319.99188 341.29056 376.85233">Low Density </tspan></text>
</g></g><g
       id="g24"><g
         clip-path="url(#clipPath30)"
         id="g26" /></g><g
       id="g32"><g
         clip-path="url(#clipPath38)"
         id="g34" /></g><g
       id="g40"><g
         clip-path="url(#clipPath46)"
         id="g42"><text
           id="text50"
           style="font-variant:normal;font-weight:bold;font-size:63.95999908px;font-family:Arial;-inkscape-font-specification:Arial-BoldMT;writing-mode:lr-tb;fill:#ffffff;fill-opacity:1;fill-rule:nonzero;stroke:none"
           transform="matrix(1,0,0,-1,108.5,586.42)"><tspan
             id="tspan48"
             y="0"
             x="0 42.66132 81.740883 99.521759 135.08353 170.64528 191.94395 231.15144 266.7132 284.49408 320.05585 359.13541">Polyethylene</tspan></text>
</g></g><g
       id="g52"><g
         clip-path="url(#clipPath58)"
         id="g54" /></g><g
       id="g60"><g
         clip-path="url(#clipPath66)"
         id="g62" /></g><g
       id="g68"><g
         clip-path="url(#clipPath74)"
         id="g70"><text
           id="text78"
           style="font-variant:normal;font-weight:normal;font-size:48px;font-family:ArialMT;-inkscape-font-specification:ArialMT;writing-mode:lr-tb;fill:#ffffff;fill-opacity:1;fill-rule:nonzero;stroke:none"
           transform="matrix(1,0,0,-1,125.9,527.71)"><tspan
             id="tspan76"
             y="0"
             x="0 34.655998 61.344002 77.328003 104.016 130.70399 141.36 168.048 181.392 194.73599 224.064 234.72 261.40799 285.40799 296.064 322.75201 333.40799">Durable, Flexible</tspan></text>
</g></g><g
       id="g80"><g
         clip-path="url(#clipPath86)"
         id="g82" /></g><g
       id="g88"><g
         clip-path="url(#clipPath94)"
         id="g90" /></g><g
       id="g96"><g
         clip-path="url(#clipPath102)"
         id="g98"><text
           id="text106"
           style="font-variant:normal;font-weight:normal;font-size:48px;font-family:ArialMT;-inkscape-font-specification:ArialMT;writing-mode:lr-tb;fill:#ffffff;fill-opacity:1;fill-rule:nonzero;stroke:none"
           transform="matrix(1,0,0,-1,271.37,472.63)"><tspan
             id="tspan104"
             y="0"
             x="0 32.015999 56.015999">Ex:</tspan></text>
</g></g><g
       id="g108"><g
         clip-path="url(#clipPath114)"
         id="g110" /></g><g
       id="g116"><g
         clip-path="url(#clipPath122)"
         id="g118" /></g><g
       id="g124"><g
         clip-path="url(#clipPath130)"
         id="g126"><text
           id="text134"
           style="font-variant:normal;font-weight:normal;font-size:48px;font-family:ArialMT;-inkscape-font-specification:ArialMT;writing-mode:lr-tb;fill:#ffffff;fill-opacity:1;fill-rule:nonzero;stroke:none"
           transform="matrix(1,0,0,-1,129.86,417.43)"><tspan
             id="tspan132"
             y="0"
             x="0">-</tspan></text>
</g></g><g
       id="g136"><g
         clip-path="url(#clipPath142)"
         id="g138"><text
           id="text146"
           style="font-variant:normal;font-weight:normal;font-size:48px;font-family:ArialMT;-inkscape-font-specification:ArialMT;writing-mode:lr-tb;fill:#ffffff;fill-opacity:1;fill-rule:nonzero;stroke:none"
           transform="matrix(1,0,0,-1,145.82,417.43)"><tspan
             id="tspan144"
             y="0"
             x="0 32.015999 58.703999 85.391998 112.08 138.76801 162.76801 189.45599 202.8 232.12801 258.81601 285.504 312.336 336.336">Squeeze Tubes </tspan></text>
</g></g><g
       id="g148"><g
         clip-path="url(#clipPath154)"
         id="g150" /></g><g
       id="g156"><g
         clip-path="url(#clipPath162)"
         id="g158"><text
           id="text166"
           style="font-variant:normal;font-weight:normal;font-size:48px;font-family:ArialMT;-inkscape-font-specification:ArialMT;writing-mode:lr-tb;fill:#ffffff;fill-opacity:1;fill-rule:nonzero;stroke:none"
           transform="matrix(1,0,0,-1,169.94,362.21)"><tspan
             id="tspan164"
             y="0"
             x="0 15.984 45.312 72 98.688004 112.032 138.72 165.408 192.09599 216.09599 229.44 256.12799 272.112">(Toothpaste) </tspan></text>
</g></g><g
       id="g168"><g
         clip-path="url(#clipPath174)"
         id="g170" /></g><g
       id="g176"><g
         clip-path="url(#clipPath182)"
         id="g178" /></g><g
       id="g184"><g
         clip-path="url(#clipPath190)"
         id="g186"><text
           id="text194"
           style="font-variant:normal;font-weight:normal;font-size:48px;font-family:ArialMT;-inkscape-font-specification:ArialMT;writing-mode:lr-tb;fill:#ffffff;fill-opacity:1;fill-rule:nonzero;stroke:none"
           transform="matrix(1,0,0,-1,185.9,307.01)"><tspan
             id="tspan192"
             y="0"
             x="0">-</tspan></text>
</g></g><g
       id="g196"><g
         clip-path="url(#clipPath202)"
         id="g198"><text
           id="text206"
           style="font-variant:normal;font-weight:normal;font-size:48px;font-family:ArialMT;-inkscape-font-specification:ArialMT;writing-mode:lr-tb;fill:#ffffff;fill-opacity:1;fill-rule:nonzero;stroke:none"
           transform="matrix(1,0,0,-1,201.89,307.01)"><tspan
             id="tspan204"
             y="0"
             x="0 32.015999 58.703999 82.704002 106.704 133.392 160.08 170.73599 197.424">Packaging</tspan></text>
</g></g><g
       id="g208"><g
         clip-path="url(#clipPath214)"
         id="g210" /></g><g
       id="g216"><g
         clip-path="url(#clipPath222)"
         id="g218" /></g><g
       id="g224"><g
         clip-path="url(#clipPath230)"
         id="g226"><text
           id="text234"
           style="font-variant:normal;font-weight:normal;font-size:48px;font-family:ArialMT;-inkscape-font-specification:ArialMT;writing-mode:lr-tb;fill:#ffffff;fill-opacity:1;fill-rule:nonzero;stroke:none"
           transform="matrix(1,0,0,-1,185.9,251.81)"><tspan
             id="tspan232"
             y="0"
             x="0 32.015999 58.703999 98.688004 125.376 138.72 149.37601 189.36 216.048 240.048">Sometimes </tspan></text>
</g></g><g
       id="g236"><g
         clip-path="url(#clipPath242)"
         id="g238" /></g><g
       id="g244"><g
         clip-path="url(#clipPath250)"
         id="g246"><text
           id="text254"
           style="font-variant:normal;font-weight:normal;font-size:48px;font-family:ArialMT;-inkscape-font-specification:ArialMT;writing-mode:lr-tb;fill:#ffffff;fill-opacity:1;fill-rule:nonzero;stroke:none"
           transform="matrix(1,0,0,-1,188.66,196.58)"><tspan
             id="tspan252"
             y="0"
             x="0 34.655998 61.344002 85.344002 109.344 133.34399 144 170.688 197.37601 208.032">Recyclable</tspan></text>
</g></g><g
       id="g256"><g
         clip-path="url(#clipPath262)"
         id="g258" /></g><g
       id="g264"><g
         clip-path="url(#clipPath270)"
         id="g266" /></g><g
       id="g272"><g
         clip-path="url(#clipPath278)"
         id="g274"><text
           id="text282"
           style="font-variant:normal;font-weight:normal;font-size:48px;font-family:ArialMT;-inkscape-font-specification:ArialMT;writing-mode:lr-tb;fill:#ffffff;fill-opacity:1;fill-rule:nonzero;stroke:none"
           transform="matrix(1,0,0,-1,101.9,141.38)"><tspan
             id="tspan280"
             y="0"
             x="0 10.656 37.344002 50.688 77.375999 90.720001 117.408 144.09599 160.08 186.76801 213.45599 240.144 266.832 280.17599 290.832 301.48801 328.17599 354.86401 370.84799 394.84799 408.19199">into garbage liners, </tspan></text>
</g></g><g
       id="g284"><g
         clip-path="url(#clipPath290)"
         id="g286" /></g><g
       id="g292"><g
         clip-path="url(#clipPath298)"
         id="g294"><text
           id="text302"
           style="font-variant:normal;font-weight:normal;font-size:48px;font-family:ArialMT;-inkscape-font-specification:ArialMT;writing-mode:lr-tb;fill:#ffffff;fill-opacity:1;fill-rule:nonzero;stroke:none"
           transform="matrix(1,0,0,-1,93.864,86.184)"><tspan
             id="tspan300"
             y="0"
             x="0 24 50.688 61.344002 88.031998 114.72 125.376 152.064 178.752 192.09599 218.784 245.472 269.47198 293.47198 320.16 346.84799 357.504 384.19199 410.88 424.224">shipping packaging, </tspan></text>
</g></g><g
       id="g304"><g
         clip-path="url(#clipPath310)"
         id="g306" /></g><g
       id="g312"><g
         clip-path="url(#clipPath318)"
         id="g314" /></g></g></svg>